#!OML:ASF E:\Steps\Project 1\Capture day 1\Session 2\Subject.ASF
:FULLY-SPECIFIED
:DEGREES
144
root 16.3236 19.0634 20.5644 -160.129 -9.32925 168.039
lowerback -19.9861 -1.23535 -3.32624
upperback 2.84937 -0.724665 -0.892375
thorax 14.5904 -0.572923 0.646815
lowerneck -2.00547 5.31823 0.34928
upperneck 19.0536 5.97367 1.47237
head 6.05733 2.62819 0.707758
rclavicle -7.15625e-015 2.38542e-014
rhumerus -34.7279 -12.8468 -73.5184
rradius 44.6692
rwrist -6.56753
rhand -6.60509 -55.751
rfingers 7.12502
rthumb 19.2506 -84.8182
lclavicle -7.15625e-015 2.38542e-014
lhumerus -33.4605 2.19845 78.6506
lradius 27.1717
lwrist -3.28739
lhand -17.8813 -13.2677
lfingers 7.12502
lthumb 8.3849 16.5458
rfemur -29.0241 5.22577 10.7504
rtibia 41.8679
rfoot -37.2259 -14.7792
rtoes -24.461
lfemur -42.1816 -6.13718 -5.70358
ltibia 33.09
lfoot 9.88665 8.46327
ltoes -21.3911
145
root 16.293 19.0431 20.5488 -160.067 -9.32574 167.889
lowerback -20.0631 -1.32014 -3.21303
upperback 2.81742 -0.869531 -0.849144
thorax 14.6025 -0.631128 0.58407
lowerneck -2.10145 5.24625 0.292164
upperneck 19.1052 5.9022 1.33619
head 6.09294 2.57873 0.673578
rclavicle -1.98785e-015 9.54166e-015
rhumerus -34.4961 -12.6889 -73.3711
rradius 44.7057
rwrist -6.49042
rhand -6.03519 -57.1414
rfingers 7.12502
rthumb 19.7985 -86.1531
lclavicle -1.98785e-015 9.54166e-015
lhumerus -33.3809 2.53307 78.5358
lradius 27.1844
lwrist -3.50813
lhand -18.0177 -13.3838
lfingers 7.12502
lthumb 8.25328 16.435
rfemur -29.2555 5.11766 10.4795
rtibia 42.4213
rfoot -37.5812 -14.9154
rtoes -24.9223
lfemur -42.0211 -6.33111 -5.05853
ltibia 32.0742
lfoot 10.0221 8.97511
ltoes -21.1486
146
root 16.2573 19.0278 20.5181 -160.342 -9.29364 167.668
lowerback -19.9418 -1.40933 -3.15837
upperback 2.86082 -1.00667 -0.836869
thorax 14.586 -0.689063 0.524192
lowerneck -2.01221 5.37353 0.19407
upperneck 19.024 6.10503 1.25619
head 6.05025 2.66713 0.672564
rclavicle 1.15295e-014 -4.77083e-015
rhumerus -34.3748 -12.5704 -73.183
rradius 44.7324
rwrist -6.34974
rhand -4.31045 -58.0363
rfingers 7.12502
rthumb 21.4558 -86.8681
lclavicle 1.15295e-014 -4.77083e-015
lhumerus -33.3953 2.89036 78.4238
lradius 27.1986
lwrist -3.69641
lhand -18.2786 -13.5209
lfingers 7.12502
lthumb 8.00148 16.3076
rfemur -28.8684 5.22497 10.1438
rtibia 42.6139
rfoot -37.8218 -15.203
rtoes -25.3662
lfemur -41.3508 -6.6977 -4.59755
ltibia 30.939
lfoot 10.21 9.49126
ltoes -20.9335
147
root 16.2203 19.0118 20.4879 -160.59 -9.20174 167.429
lowerback -19.7795 -1.46058 -3.11581
upperback 2.85034 -1.0939 -0.824727
thorax 14.4792 -0.72479 0.489337
lowerneck -1.85034 5.51859 0.116035
upperneck 18.9664 6.33505 1.10788
head 6.00565 2.76273 0.646314
rclavicle 9.14409e-015 4.29375e-014
rhumerus -34.4101 -12.3008 -72.9766
rradius 44.8572
rwrist -6.21908
rhand -5.24964 -56.2433
rfingers 7.12502
rthumb 20.5535 -85.1753
lclavicle 9.14409e-015 4.29375e-014
lhumerus -33.4524 3.12036 78.3381
lradius 27.2174
lwrist -3.69537
lhand -18.1887 -13.4576
lfingers 7.12502
lthumb 8.08825 16.3677
rfemur -28.4409 5.27822 9.7715
rtibia 42.6175
rfoot -37.8542 -15.3507
rtoes -26.0155
lfemur -40.6563 -6.95139 -4.21561
ltibia 29.6905
lfoot 10.4933 10.2232
ltoes -20.0382
148
root 16.1854 18.9896 20.4666 -160.558 -8.8944 167.331
lowerback -19.8667 -1.39432 -3.01012
upperback 2.7913 -1.03634 -0.77115
thorax 14.4574 -0.691913 0.507968
lowerneck -1.80351 5.58316 0.045989
upperneck 19.0652 6.46006 0.864376
head 6.03452 2.79578 0.588344
rclavicle -1.27222e-014 -2.54444e-014
rhumerus -34.3821 -12.1736 -72.6914
rradius 45.0193
rwrist -6.1372
rhand -7.32566 -52.652
rfingers 7.12502
rthumb 18.5576 -81.7868
lclavicle -1.27222e-014 -2.54444e-014
lhumerus -33.4636 3.13098 78.3465
lradius 27.3655
lwrist -3.48283
lhand -17.8433 -13.5163
lfingers 7.12502
lthumb 8.42153 16.2958
rfemur -28.6583 5.38049 9.45957
rtibia 43.0606
rfoot -38.0401 -15.0138
rtoes -25.6326
lfemur -40.2212 -6.85512 -3.67139
ltibia 28.4343
lfoot 10.6892 11.033
ltoes -19.8576
149
root 16.1554 18.9767 20.4376 -160.855 -9.46404 166.849
lowerback -19.6609 -1.67472 -3.28429
upperback 2.90657 -1.35407 -0.714207
thorax 14.493 -0.862734 0.629038
lowerneck -1.78093 5.59901 -0.0844212
upperneck 19.2423 6.48891 0.771597
head 6.08519 2.78448 0.583434
rclavicle 1.31198e-014 3.18055e-015
rhumerus -34.3342 -12.19 -72.3457
rradius 45.2391
rwrist -6.25863
rhand -5.45551 -55.4153
rfingers 7.12502
rthumb 20.3557 -84.3685
lclavicle 1.31198e-014 3.18055e-015
lhumerus -33.4986 3.12867 78.3789
lradius 27.6095
lwrist -3.34162
lhand -17.6688 -13.6616
lfingers 7.12502
lthumb 8.58993 16.1436
rfemur -27.9638 4.89532 9.06444
rtibia 43.3058
rfoot -38.505 -14.9755
rtoes -24.8084
lfemur -39.6633 -7.63693 -3.44914
ltibia 27.3145
lfoot 10.9084 11.3385
ltoes -20.1696
150
root 16.1077 18.9529 20.4254 -160.544 -8.76327 166.859
lowerback -20.1102 -1.39517 -2.8919
upperback 2.77499 -1.05996 -0.758905
thorax 14.5814 -0.694052 0.442425
lowerneck -1.68418 5.56239 -0.0932427
upperneck 19.3292 6.42086 0.77785
head 6.09576 2.74391 0.580926
rclavicle 7.95139e-015 -3.18055e-015
rhumerus -34.3023 -12.2629 -72.0957
rradius 45.3822
rwrist -6.32114
rhand -3.67768 -59.9602
rfingers 7.12502
rthumb 22.0634 -88.7216
lclavicle 7.95139e-015 -3.18055e-015
lhumerus -33.5304 3.27075 78.2576
lradius 27.752
lwrist -3.47903
lhand -17.696 -13.6258
lfingers 7.12502
lthumb 8.5637 16.1806
rfemur -28.9604 5.09085 8.65934
rtibia 44.3709
rfoot -38.9666 -14.7662
rtoes -25.0873
lfemur -39.5941 -7.41989 -2.82411
ltibia 26.3582
lfoot 10.7796 12.2788
ltoes -20.1192
151
root 16.066 18.9342 20.4033 -160.61 -8.4845 166.668
lowerback -20.1224 -1.31266 -2.76066
upperback 2.7201 -0.979332 -0.801685
thorax 14.5168 -0.643979 0.345859
lowerneck -1.54655 5.53919 0.0725486
upperneck 19.2937 6.41 0.543649
head 6.07527 2.73158 0.475446
rclavicle -8.34896e-015 9.54166e-015
rhumerus -34.2763 -12.2997 -71.8797
rradius 45.3535
rwrist -6.20426
rhand -4.38229 -58.0036
rfingers 7.12502
rthumb 21.3868 -86.8433
lclavicle -8.34896e-015 9.54166e-015
lhumerus -33.6186 3.42847 78.1037
lradius 27.8977
lwrist -3.67559
lhand -17.787 -13.4349
lfingers 7.12502
lthumb 8.47587 16.375
rfemur -28.9971 5.23848 8.24864
rtibia 44.8273
rfoot -39.3241 -14.7599
rtoes -25.1151
lfemur -39.1502 -7.37038 -2.56047
ltibia 25.3915
lfoot 10.9698 12.7451
ltoes -21.7298
152
root 16.0237 18.9174 20.3802 -160.663 -8.45777 166.383
lowerback -20.0195 -1.36034 -2.76504
upperback 2.63434 -1.05132 -0.78486
thorax 14.3566 -0.677133 0.347872
lowerneck -1.38179 5.63567 0.108392
upperneck 19.1644 6.59416 0.255833
head 6.01773 2.80675 0.383499
rclavicle -1.70955e-014 6.36111e-014
rhumerus -34.3353 -12.1706 -71.5904
rradius 45.3449
rwrist -6.04707
rhand -6.56636 -56.8066
rfingers 7.12502
rthumb 19.2878 -85.8701
lclavicle -1.70955e-014 6.36111e-014
lhumerus -33.7525 3.43352 78.0801
lradius 28.0632
lwrist -3.61944
lhand -17.8145 -13.5317
lfingers 7.12502
lthumb 8.44935 16.2793
rfemur -28.8188 5.21949 7.81311
rtibia 45.0138
rfoot -39.5028 -15.0161
rtoes -25.9728
lfemur -38.7609 -7.42635 -2.39252
ltibia 24.4199
lfoot 11.0942 13.2154
ltoes -21.7946
153
root 15.9801 18.9038 20.3509 -160.836 -8.65999 166.131
lowerback -19.971 -1.48634 -2.73275
upperback 2.66885 -1.23535 -0.717081
thorax 14.3752 -0.761157 0.347888
lowerneck -1.31335 5.72144 -0.028442
upperneck 19.1107 6.74981 0.111275
head 5.98942 2.86444 0.3664
rclavicle 2.78299e-015 4.77083e-015
rhumerus -34.3267 -11.9409 -71.3327
rradius 45.4713
rwrist -5.95681
rhand -3.31472 -58.1063
rfingers 7.12502
rthumb 22.4119 -86.826
lclavicle 2.78299e-015 4.77083e-015
lhumerus -33.7528 3.48448 78.1083
lradius 28.1968
lwrist -3.47905
lhand -17.9195 -13.5928
lfingers 7.12502
lthumb 8.34804 16.2223
rfemur -28.3653 5.01562 7.50372
rtibia 45.197
rfoot -39.7828 -15.2506
rtoes -26.681
lfemur -38.3088 -7.73022 -2.14675
ltibia 23.4738
lfoot 11.0813 13.7344
ltoes -20.8993
154
root 15.9337 18.888 20.3204 -160.932 -8.68749 165.966
lowerback -20.0806 -1.52306 -2.58163
upperback 2.70102 -1.32166 -0.675038
thorax 14.4781 -0.789958 0.278801
lowerneck -1.33942 5.64673 -0.0597783
upperneck 19.2595 6.65575 -0.0159853
head 6.04435 2.79837 0.328719
rclavicle 9.93923e-015 -3.33958e-014
rhumerus -34.2532 -11.7983 -71.0935
rradius 45.5683
rwrist -5.90933
rhand -5.55465 -54.403
rfingers 7.12502
rthumb 20.2604 -83.3664
lclavicle 9.93923e-015 -3.33958e-014
lhumerus -33.6867 3.7317 78.0561
lradius 28.2347
lwrist -3.49811
lhand -18.1623 -13.6187
lfingers 7.12502
lthumb 8.11371 16.2056
rfemur -28.1472 5.01959 7.17984
rtibia 45.5399
rfoot -40.3369 -14.9345
rtoes -25.8089
lfemur -37.9572 -8.03018 -1.80266
ltibia 22.6804
lfoot 11.0781 14.1981
ltoes -21.2244
155
root 15.8851 18.8686 20.2919 -160.928 -8.39915 165.824
lowerback -20.124 -1.44418 -2.4052
upperback 2.58907 -1.26221 -0.685807
thorax 14.3642 -0.747626 0.186463
lowerneck -1.28603 5.50582 0.0766763
upperneck 19.3784 6.46809 -0.234031
head 6.08515 2.69059 0.227062
rclavicle 1.03368e-014 6.83819e-014
rhumerus -34.2405 -11.7987 -70.8027
rradius 45.4155
rwrist -5.68119
rhand -6.77557 -54.3653
rfingers 7.12502
rthumb 19.0867 -83.4488
lclavicle 1.03368e-014 6.83819e-014
lhumerus -33.7356 3.94662 77.88
lradius 28.1469
lwrist -3.49045
lhand -18.2897 -14.0807
lfingers 7.12502
lthumb 7.99074 15.7482
rfemur -28.2816 5.23409 6.77147
rtibia 46.0138
rfoot -40.779 -14.7853
rtoes -25.7245
lfemur -37.5651 -8.16916 -1.4725
ltibia 21.7872
lfoot 10.9037 14.8705
ltoes -20.4853
156
root 15.8357 18.849 20.2665 -160.923 -8.03151 165.651
lowerback -20.1196 -1.38433 -2.27419
upperback 2.47473 -1.2207 -0.678942
thorax 14.222 -0.718366 0.135206
lowerneck -1.13643 5.5526 0.00760845
upperneck 19.3195 6.55447 -0.370828
head 6.04357 2.71689 0.195086
rclavicle -1.74931e-014 -3.65764e-014
rhumerus -34.1654 -11.6625 -70.5536
rradius 45.2619
rwrist -5.69435
rhand -5.5213 -54.1179
rfingers 7.12502
rthumb 20.2925 -83.0778
lclavicle -1.74931e-014 -3.65764e-014
lhumerus -33.8468 4.15868 77.7291
lradius 28.1859
lwrist -3.37088
lhand -18.2455 -14.2432
lfingers 7.12502
lthumb 8.03342 15.5841
rfemur -28.5798 5.35061 6.33241
rtibia 46.7853
rfoot -41.2231 -15.004
rtoes -26.913
lfemur -37.1156 -8.21104 -1.22085
ltibia 20.8409
lfoot 10.6385 15.646
ltoes -19.2859
157
root 15.7894 18.8435 20.2317 -161.4 -8.62176 165.256
lowerback -19.7251 -1.56602 -2.27914
upperback 2.55835 -1.46295 -0.731049
thorax 14.0913 -0.825844 0.00992253
lowerneck -0.955036 5.76992 0.0808637
upperneck 19.4126 6.8192 -0.295141
head 6.04309 2.85039 0.217065
rclavicle 1.19271e-014 1.59028e-015
rhumerus -34.3655 -11.6939 -70.39
rradius 45.4323
rwrist -5.95659
rhand 0.00157088 -66.2902
rfingers 7.12502
rthumb 25.5919 94.5908
lclavicle 1.19271e-014 1.59028e-015
lhumerus -33.9762 3.8155 77.6442
lradius 28.4192
lwrist -2.98273
lhand -18.0867 -14.1057
lfingers 7.12502
lthumb 8.18665 15.7157
rfemur -27.5974 4.91135 6.00523
rtibia 46.9727
rfoot -41.7046 -15.3287
rtoes -27.3409
lfemur -36.4985 -8.93399 -1.24519
ltibia 20.0387
lfoot 11.1205 15.6531
ltoes -20.7477
